<svg xmlns="http://www.w3.org/2000/svg" xmlns:xlink="http://www.w3.org/1999/xlink" width="40" zoomAndPan="magnify" viewBox="0 0 30 30.000001" height="40" preserveAspectRatio="xMidYMid meet" version="1.0"><defs><g/></defs><g fill="#ff3131" fill-opacity="1"><g transform="translate(6.40402, 26.377659)"><g><path d="M 8.75 -23.46875 C 9.21875 -23.46875 9.800781 -23.410156 10.5 -23.296875 C 11.207031 -23.179688 11.773438 -23.046875 12.203125 -22.890625 L 12.203125 -19.171875 L 10.734375 -19.171875 C 10.054688 -19.171875 9.585938 -19.039062 9.328125 -18.78125 C 9.078125 -18.53125 8.953125 -18.097656 8.953125 -17.484375 L 8.953125 -16.8125 L 12.203125 -16.8125 L 12.203125 -12.515625 L 8.953125 -12.515625 L 8.953125 0 L 2.609375 0 L 2.609375 -12.515625 L 0.25 -12.515625 L 0.25 -16.8125 L 2.609375 -16.8125 L 2.609375 -17.515625 C 2.609375 -19.679688 3.140625 -21.210938 4.203125 -22.109375 C 5.265625 -23.015625 6.78125 -23.46875 8.75 -23.46875 Z M 8.75 -23.46875 "/></g></g></g><g fill="#ff3131" fill-opacity="1"><g transform="translate(15.223133, 26.377659)"><g><path d="M 1.9375 0 L 1.9375 -6.34375 L 8.6875 -6.34375 L 8.6875 0 Z M 1.9375 0 "/></g></g></g></svg>